<?xml version="1.0" encoding="UTF-8"?>
<svg xmlns="http://www.w3.org/2000/svg" viewBox="0 0 32 32" role="img" aria-labelledby="title">
  <title id="title">Cadence</title>
  <rect width="32" height="32" rx="6" fill="#FAF8F3"/>
  <g transform="translate(8, 4.5) scale(0.131)">
    <path fill="#1A1A1A" d="M18.64,28.31c4.53-6.49,10.08-12.32,16.64-17.49,3.32-2.61,6.89-5.04,10.73-7.29l.03-.04v-1.11c0-1.67-1.82-2.71-3.26-1.87-12.53,7.31-22.55,16.98-30.06,29.02C4.41,42.83.16,57.56,0,73.71c-.1,8.68,1,17.16,3.28,25.42,2.27,8.26,5.59,15.86,9.95,22.8,4.36,6.95,9.76,13.16,16.22,18.67,4.16,3.49,8.63,6.51,13.41,9.05,1.44.77,3.19-.28,3.19-1.92h0c0-.8-.44-1.52-1.14-1.9-2.87-1.56-5.71-3.32-8.5-5.29-6.79-4.86-12.53-10.76-17.27-17.7-4.72-6.95-8.35-14.57-10.86-22.87-2.52-8.31-3.73-17-3.64-26.09.09-8.44,1.31-16.53,3.67-24.25,2.35-7.72,5.8-14.83,10.34-21.32Z"/>
    <path fill="#1A1A1A" d="M118.41,120.72c1.77-.25,3.02,1.73,2.01,3.2-3.15,4.54-6.71,8.46-10.69,11.73-9.63,7.93-21.41,11.9-35.31,11.9-16.25,0-29.71-5.33-40.37-16.01-4.57-4.65-8.4-9.91-11.5-15.8-3.11-5.89-5.48-12.36-7.14-19.39-1.65-7.03-2.47-14.27-2.47-21.68,0-13.8,2.86-26.41,8.59-37.86,5.73-11.44,13.62-20.43,23.69-26.99,2.24-1.46,4.54-2.75,6.89-3.89,1.34-.65,2.7-1.25,4.08-1.78,7.02-2.77,14.5-4.16,22.43-4.16,3.41,0,7.53.4,12.37,1.19,1,.16,1.72,1.03,1.72,2.04v2.95l-.14.02c-3.57-1.23-7.57-1.83-11.99-1.83-6.72,0-13,1.56-18.81,4.68-5.81,3.12-10.86,7.52-15.14,13.21-4.27,5.68-7.6,12.41-9.96,20.17-2.36,7.77-3.55,16.12-3.55,25.06,0,13.52,2.19,25.84,6.59,36.97,4.38,11.13,10.42,19.86,18.09,26.21,7.67,6.34,16.17,9.51,25.53,9.51,6.44,0,12.47-1.53,18.09-4.58,5.61-3.05,10.62-7.45,15-13.21.21-.27.42-.55.62-.83.33-.45.83-.76,1.39-.84h0Z"/>
    <circle fill="#4ECDC4" cx="95.01" cy="109.17" r="19.56"/>
  </g>
</svg>
